<?xml version="1.0" encoding="utf-8"?>
<!-- Generator: Adobe Illustrator 24.0.1, SVG Export Plug-In . SVG Version: 6.00 Build 0)  -->
<svg version="1.1" id="Layer_2" xmlns="http://www.w3.org/2000/svg" xmlns:xlink="http://www.w3.org/1999/xlink"
	 viewBox="0 0 612 792" style="enable-background:new 0 0 612 792;" xml:space="preserve">
<g>
	<path d="M178.85,387.67c-8.84-1.18-15.28-9.61-14.74-18.31c0.49-7.87,7.14-15.2,14.99-16.05c1.04-0.11,2.58-0.88,2.89-1.72
		c2.81-7.44,6.91-14.09,11.88-20.44c-3.75-2.42-6.26-5.8-6.99-9.98c-0.54-3.09-0.66-6.57,0.19-9.54c2.33-8.07,8.49-12.05,16.2-12.28
		c6.35-0.19,13.15,2.69,16.98,12.05c3.58-1.09,7.11-2.48,10.77-3.19c5.02-0.97,10.13-1.55,15.22-2c1.62-0.14,2.54-0.64,3.38-1.92
		c4.22-6.46,11.85-9.16,19.58-7.02c6.77,1.88,11.9,8.52,12.35,15.82c0.05,0.81,0.67,1.9,1.35,2.32c8.32,5.07,15.58,11.31,21.35,19.2
		c6.35,8.67,10.9,18.21,12.37,28.88c0.88,6.4,1.45,12.99,0.96,19.4c-1.04,13.42-5.8,25.65-14.25,36.23
		c-3.36,4.21-7.25,8-11.01,12.09c5.68,2.38,5.53,7.96,5.62,13.01c0.17,9.6-0.8,19.17-2.91,28.56c-3.46,15.37-7.27,30.66-10.67,46.05
		c-1.91,8.66-3.4,17.42-4.86,26.17c-1.47,8.86-2.89,17.73-3.88,26.65c-0.46,4.09-1.15,8.48,2.26,12.09c1.55,1.65,1.49,3.9,0.42,5.85
		c-3.52,6.4-8.01,11.96-14.69,15.29c-3.35,1.67-6.8,1.57-9.68-1.14c-2.84-2.67-4.38-5.94-3.85-9.98c0.14-1.1-0.24-2.32,0.09-3.33
		c1.14-3.58,0.07-7.2,0.42-10.77c0.2-2.06,0.59-4.1,0.4-6.37c-0.72,1.19-1.43,2.38-2.15,3.57c-4.56,7.51-9.74,14.42-18.22,17.94
		c-6.27,2.6-12.56,4.18-19.4,1.59c-4.47-1.69-6.94-5.14-9.4-8.73c-5.19-7.59-8.45-15.96-9.54-25.11c-0.49-4.1-0.57-8.24-1.05-12.34
		c-0.39-3.35-1.34-6.64-1.58-9.99c-0.29-4.04-0.1-8.12-0.08-12.18c0.01-1.66,0.22-3.33,0.17-4.99c-0.3-9.82-1.02-19.65-0.88-29.47
		c0.13-8.51,1.18-17,1.9-25.49c0.42-5.03,0.9-10.06,1.53-15.06c0.42-3.36,1.87-6.34,4.53-8.53c2.63-2.16,7.45-2.91,9.65,1.11
		c1.83,3.36,4.39,5.88,7.13,8.38c3.16,2.88,4.41,6.56,4.64,10.83c0.31,5.66-1.24,10.99-2.24,16.44c-0.15,0.81-0.31,1.63-0.31,2.45
		c-0.05,6.96-0.24,13.88-2.44,20.61c-0.48,1.47-0.04,3.24-0.04,4.86c0,2.88-0.01,5.75-0.01,8.63c0,4.35-0.4,8.75,0.11,13.04
		c0.81,6.84,1.97,13.67,3.45,20.4c1.28,5.83,3.04,11.55,6.91,16.41c3.99,5,8.53,4.29,11.56-0.1c4.11-5.93,8.17-12,11.34-18.45
		c2.66-5.41,4.2-11.42,5.9-17.25c3.55-12.21,7.12-24.41,10.19-36.74c2.07-8.29,3.12-16.82,5-25.17c0.95-4.22,2.66-8.28,4.1-12.38
		c1.74-4.95,3.57-9.87,5.33-14.81c0.26-0.74,0.35-1.54,0.55-2.43c-4.46,1.41-8.62,2.99-12.91,4.03c-17.36,4.19-34.05,2.34-49.89-6.1
		c-15.83-8.43-26.78-21.2-33.01-37.93c-1.51-4.06-2.07-8.46-3.07-12.71c1.16-0.04,2.33-0.1,3.49-0.11
		c11.14-0.11,19.13-11.73,15.44-22.27c-2.28-6.52-6.93-10.24-13.65-11.64c-1.73-0.36-2.51-0.15-3.05,1.65
		C177.81,365.88,176.66,376.66,178.85,387.67z M240.28,352.35c-9.95,0.43-17.25,7.27-17.32,17.15c-0.07,9.58,7.3,17.05,17.09,17.16
		c9.33,0.11,17.47-7.85,17.21-17C256.96,359.68,249.99,352.94,240.28,352.35z M303.2,360.99c-3.63,41.45-25.72,65.47-67.76,71.63
		c24.43,3.79,44.24-3.18,58.72-22.56C305.14,395.37,307.76,378.66,303.2,360.99z M246.57,313.79c0.46,9.94,9.12,18.1,19.34,17.07
		c6.47-0.65,13.43-6.12,15.07-13.52c0.37-1.67,0.08-2.87-1.8-3.78c-9.1-4.38-18.72-6.68-28.74-7.42c-0.67-0.05-1.8,0.65-2.04,1.26
		C247.63,309.47,247.16,311.65,246.57,313.79z M194.26,331.27c6.95,3.61,13.45,3.66,19.26-0.65c6.06-4.5,8.52-10.77,6.57-18.58
		C209.94,316.4,201.48,322.66,194.26,331.27z"/>
	<path d="M396.88,560.77c2.37-3.46,4.64-6.55,6.64-9.81c0.77-1.26,1.54-1.88,2.95-2.5c3.54-1.55,6.84-1.65,10.38-0.2
		c0.93,0.38,2.19,0.02,3.28-0.1c2.78-0.29,5.56-0.84,8.35-0.91c5.52-0.14,11.04-0.06,16.56-0.03c7.46,0.04,9.95,4.21,9.23,11.26
		c-0.12,1.22-0.2,2.47-0.56,3.63c-1.61,5.18-5.91,7.61-11.31,6.61c-5.7-1.06-11.35-0.49-17.04,0.45c-2.46,0.41-5.15,0.36-7.58-0.18
		c-4.3-0.96-8.46-0.75-12.74-0.01c-1.68,0.29-3.53-0.41-5.09-0.62c-0.55,2.93-0.68,5.99-1.73,8.69c-2.39,6.15-7.43,9.96-12.91,13.22
		c-12.13,7.21-25.42,11.42-38.94,15.04c-5.87,1.57-11.79,2.94-17.64,4.6c-1.04,0.29-2.16,1.36-2.64,2.36
		c-1.74,3.63-3.73,6.62-8.23,7.29c-3.68,0.55-7.67-1.02-8.95-4.47c-0.55-1.48-0.87-2.02-2.6-1.36c-3.12,1.18-9.58-1.07-11.71-3.76
		c-2.46-3.11-1.78-7.41,1.39-9.71c3.6-2.62,7.17-5.28,10.57-8.14c0.78-0.66,1.12-2.19,1.15-3.34c0.12-5.02-0.19-10.05,0.12-15.05
		c0.35-5.75,1.18-11.48,1.79-17.21c0.04-0.4,0.04-0.81-0.01-1.21c-0.28-2.19-0.76-4.37-0.81-6.57c-0.06-2.5-0.98-3.97-3.45-4.74
		c-4.69-1.46-7.52-5.01-7.17-10.25c0.23-3.39,2.64-4.96,4.98-6.62c1.67-1.19,3.32-2.58,5.21-3.25c2.32-0.82,2.59-2.64,2.85-4.43
		c0.96-6.52,1.82-13.06,2.55-19.61c0.17-1.56-0.45-3.19-0.46-4.79c-0.04-7.51,1.8-14.37,7.08-20.02c1.46-1.57,2.79-3.26,4.66-5.47
		c-3.91,1.1-7.17,2.18-10.52,2.91c-4.18,0.91-8.41,1.56-12.63,2.28c-3.07,0.53-5.45-2.04-5.18-5.98c0.1-1.39,0.2-2.81,0.56-4.15
		c0.28-1.07,0.87-2.08,1.47-3.03c1.07-1.7,2.42-3.24,3.33-5.01c1.32-2.57,3.79-3.46,6.13-4.16c8.88-2.64,17.81-5.19,26.8-7.41
		c4.05-1,8.3-1.31,12.48-1.69c5.3-0.48,10.63-1,15.94-0.95c3.32,0.03,6.63,1.15,9.96,1.65c1.66,0.25,3.37,0.33,5.05,0.26
		c4.09-0.18,7.82,0.46,11.14,3.21c0.98,0.81,2.76,0.67,4.17,0.97c6.29,1.34,9.54,5.91,11.71,11.38c4.16,10.51,1.74,19.92-4.87,28.73
		c-3.73,4.98-9.1,7.82-13.77,11.56c-4.95,3.96-10.02,7.79-15.28,11.31c-5.19,3.46-10.7,6.43-16.05,9.64
		c-4.64,2.79-9.25,5.61-13.87,8.44c-0.56,0.34-1.04,0.8-2.15,1.66c2.61,1.34,4.59,2.59,6.73,3.42c9.34,3.61,18.88,6.74,28.03,10.75
		c6.94,3.05,14.34,5.6,19.63,11.56C394.77,557.95,395.57,559.09,396.88,560.77z M338.95,509.74c0.32,0.16,0.64,0.31,0.97,0.47
		c6.81-4.45,13.55-9.01,20.45-13.3c6.26-3.89,12.12-8.09,16.33-14.35c2.88-4.28,2.56-7.36-2.24-9.23
		c-5.01-1.95-10.33-3.15-15.54-4.58c-1.8-0.5-3.72-1.09-5.53-0.95c-2.6,0.2-5.95-0.17-7.03,3.03c-1.35,4.02-3.05,8.28-2.89,12.37
		c0.23,5.72-2.09,10.78-2.57,16.25C340.6,502.92,339.62,506.32,338.95,509.74z M371.42,569.13c-1.36-1.11-1.86-1.67-2.49-1.99
		c-5.33-2.71-10.57-5.66-16.07-7.99c-5.33-2.25-10.96-3.79-16.42-5.77c-2.86-1.04-3.21-1.12-3.65,2.01
		c-0.87,6.12-1.45,12.27-2.1,18.42c-0.45,4.25-0.82,8.5-1.26,13.16c3.62-0.77,7.44-1.07,10.83-2.43c6.69-2.68,13.19-5.85,19.67-9.01
		C363.66,573.72,367.18,571.51,371.42,569.13z"/>
	<path d="M117.99,531.33c2.84,1.34,4.91,2.48,7.1,3.32c9.43,3.63,19.07,6.75,28.27,10.87c6.68,2.99,13.87,5.47,18.97,11.26
		c5.92,6.71,8.2,16.41,2.64,24.04c-3.41,4.69-8.12,8.09-13.21,10.79c-11.65,6.18-24.05,10.45-36.81,13.7
		c-5.89,1.5-11.75,3.11-17.67,4.48c-2.72,0.63-3.16,3-3.89,4.87c-1.54,3.94-4.9,4.72-8.29,5.08c-3.14,0.33-6-1.05-7.15-4.23
		c-0.86-2.39-2.27-2.06-4-1.57c-5.36,1.52-12.38-3.68-12.09-9.17c0.07-1.4,0.88-3.14,1.94-4.04c3.45-2.92,7.24-5.44,10.73-8.32
		c0.92-0.76,1.69-2.27,1.73-3.46c0.19-5.01-0.17-10.05,0.14-15.05c0.36-5.84,1.25-11.64,1.79-17.47c0.08-0.87-0.65-1.79-0.74-2.71
		c-0.15-1.57-0.18-3.17-0.11-4.76c0.13-2.72-1.03-4.14-3.67-5.06c-4.74-1.64-7.2-4.86-6.93-10.18c0.17-3.38,2.74-4.74,4.84-6.47
		c1.64-1.35,3.44-2.71,5.4-3.4c2.49-0.87,2.54-2.86,2.82-4.7c0.97-6.43,1.78-12.88,2.63-19.33c0.08-0.61,0.07-1.25-0.03-1.85
		c-1.5-8.78,0.71-16.47,6.71-23.08c1.43-1.58,2.75-3.26,4.47-5.3c-5.53,1.5-10.53,2.99-15.6,4.18c-2.55,0.6-5.22,0.81-7.86,0.93
		c-2.84,0.13-5-2.26-4.83-5.09c0.09-1.55,0.1-3.18,0.57-4.63c0.49-1.52,1.45-2.89,2.28-4.29c0.83-1.39,1.59-2.86,2.66-4.04
		c1.15-1.28,2.45-2.83,3.98-3.29c10.45-3.13,20.92-6.31,31.52-8.85c5.25-1.26,10.82-1.46,16.26-1.64c3.17-0.1,6.31-0.15,9.48-0.42
		c3.26-0.27,6.63,1.04,9.98,1.53c1.66,0.25,3.36,0.34,5.03,0.28c4.09-0.15,7.85,0.46,11.13,3.29c0.89,0.77,2.63,0.55,3.96,0.83
		c4.18,0.9,7.35,3.26,9.59,6.84c8.31,13.28,4.09,28.36-6.55,37.5c-5.84,5.02-12.69,8.85-18.68,13.71
		c-10.54,8.57-22.83,14.26-34.16,21.53C121.12,528.82,119.95,529.84,117.99,531.33z M117.47,510.51c1.42-0.75,2.15-1.06,2.81-1.49
		c7.11-4.58,14.14-9.31,21.34-13.74c5.71-3.51,10.56-7.75,14.09-13.5c2.34-3.83,1.8-6.54-2.36-8.39c-2.83-1.26-5.84-2.23-8.86-2.89
		c-5.23-1.13-10.3-3.9-15.88-2.23c-1.37,0.41-3.24,1.4-3.6,2.54c-1.35,4.2-3.05,8.59-2.95,12.87c0.13,5.79-2.11,10.97-2.7,16.51
		C119.02,503.43,118.21,506.6,117.47,510.51z M108.02,586.68c0.31,0.07,0.57,0.23,0.78,0.17c5.14-1.28,10.57-1.62,15.17-4.69
		c0.81-0.55,1.78-0.86,2.68-1.28c5.75-2.67,11.54-5.24,17.21-8.06c1.98-0.98,3.68-2.55,5.8-4.06
		c-11.41-8.82-24.77-11.58-37.48-16.42C108.83,563.58,109.86,575.29,108.02,586.68z"/>
	<path d="M484.42,467.67c-7.2,1.96-14.06,3.8-20.91,5.69c-3.16,0.87-6.26,1.98-9.45,2.68c-5.51,1.22-8.5-1.92-6.95-7.14
		c1.52-5.1,2.15-10.27,3.22-15.4c0.94-4.52,3.67-7.48,7.79-9.27c5.2-2.27,10.72-3.01,16.32-3.48c4.6-0.39,9.19-0.97,13.76-1.6
		c6.27-0.87,12.5-1.23,18.81-0.15c3.51,0.6,7.23,0.15,10.69,0.89c3.73,0.8,7.59,0.68,11.2,1.69c3.09,0.86,3.95,3.95,4.08,6.79
		c0.22,4.93,0.09,9.87,0.05,14.81c-0.02,2.33-1.52,3.92-3.77,4.02c-5.51,0.26-10.9-0.25-16.22-1.89c-1.83-0.56-3.93-0.26-6.13-0.36
		c1.39,3.13,2.49,5.73,3.69,8.28c2.2,4.65,1.35,9.45,0.53,14.15c-1.03,5.98-2.54,11.88-3.67,17.85c-1.44,7.58-2.13,15.35-4.21,22.74
		c-2.04,7.24-2.01,14.64-3.32,21.91c-0.87,4.79-0.73,9.85-2.22,14.4c-1.47,4.49-0.41,8.92-1.18,13.35
		c-0.76,4.38-0.49,8.95-0.62,13.43c-0.02,0.71,0.18,1.47,0.43,2.14c1.42,3.86-0.08,8.89-4.55,10.95c-0.96,0.44-1.92,1-2.7,1.71
		c-2.45,2.23-7.07,2.8-9.54,0.67c-1.06-0.91-1.84-2.6-1.99-4.01c-0.38-3.63,0.7-7.26-0.47-11c-0.92-2.94-0.95-6.19-1.06-9.32
		c-0.28-7.33-0.69-14.68-0.44-22c0.27-8.02,1.25-16.01,1.87-24.02c0.39-5.12,0.59-10.26,1.07-15.37c0.39-4.19,1.14-8.34,1.58-12.53
		c0.19-1.85-0.14-3.76,0.05-5.62c0.16-1.59,0.89-3.13,1.07-4.72c0.21-1.8,0.06-3.63,0.12-5.45c0.03-0.77,0.08-1.56,0.3-2.3
		C483.78,482.95,484.91,475.58,484.42,467.67z"/>
	<path d="M236.57,261.55c5.48-0.09,10.56,4.33,10.83,9.19c0.53,9.44-5.36,13.15-11.03,13.18c-6.6,0.04-11.1-4.36-11.45-11.13
		C224.64,267.27,229.15,260.93,236.57,261.55z"/>
	<path d="M123.52,392.75c-0.42-6.5,4.91-10.79,9.59-11.22c8.18-0.75,12.63,5.27,12.81,10.48c0.22,6.52-4.75,11.68-10.97,11.92
		C128.58,404.18,122.87,398.19,123.52,392.75z"/>
	<path d="M299.95,295.69c-0.04-6.53,5-11.38,11.3-11.32c7.11,0.08,10.82,4.87,11.39,11.39c0.48,5.49-5.69,11.61-11.36,11.25
		C305.27,306.63,300.19,303.13,299.95,295.69z"/>
	<path d="M121.43,344.41c0.03,4.18-2.98,7.36-7,7.41c-4.16,0.05-7.47-3-7.56-6.96c-0.09-4.07,3.25-7.58,7.24-7.6
		C118.19,337.24,121.4,340.37,121.43,344.41z"/>
	<path d="M182.44,285.52c-3.45,0.6-7.57-3.5-7.3-7.11c0.33-4.38,2.9-7.17,7.38-7.4c3.77-0.19,7.1,3.23,7.16,7.07
		C189.75,282.29,186.62,285.5,182.44,285.52z"/>
	<path d="M288.59,267.66c-0.04,4.32-2.97,7.37-7.07,7.32c-4.01-0.04-7.44-2.59-7.38-7.28c0.04-3.59,2.54-7.17,7.25-7.24
		C285.46,260.4,288.64,263.63,288.59,267.66z"/>
	<path d="M147.53,427.09c0.01-4.49,2.67-7.01,7.36-6.99c4.01,0.02,6.83,2.88,6.84,6.94c0.01,4.28-3.15,7.55-7.24,7.43
		C150.23,434.34,146.83,430.75,147.53,427.09z"/>
	<path d="M139.72,348.41c2.73,0.05,5.33,2.64,5.27,5.23c-0.06,2.46-2.77,5.23-5.19,5.12c-2.96-0.13-5.48-2.12-5.3-5.32
		C134.68,350.36,136.66,348.36,139.72,348.41z"/>
	<path d="M95.9,372.97c-0.55-2.66,2.1-4.96,4.91-5.01c3.08-0.06,5,1.99,4.99,5.26c-0.01,3.23-1.98,5.27-5.12,5.1
		C97.18,378.13,95.51,375.86,95.9,372.97z"/>
	<path d="M120.47,305.31c0.04-3.07,2.32-5.24,5.44-5.17c2.58,0.06,5.04,2.64,4.96,5.22c-0.08,2.65-2.7,5.25-5.28,5.27
		C122.8,310.64,120.43,308.19,120.47,305.31z"/>
	<path d="M209.73,283.7c0.01,2.98-1.91,4.81-5.02,4.8c-3.11-0.01-4.92-1.83-4.94-4.96c-0.01-3.16,2.05-5.63,4.9-5.42
		C207.59,278.34,210.13,280.36,209.73,283.7z"/>
	<path d="M234.94,248.95c-0.28-1.85,1.01-2.81,2.82-3.02c1.86-0.21,3.09,1.24,3.14,3.31c0.05,2.07-1.08,3.12-3,3.11
		C235.99,252.34,234.83,251.31,234.94,248.95z"/>
	<path d="M117.4,277.11c0.04-1.82,1.43-3.27,3.14-3.08c1.87,0.2,3.1,1.28,3.1,3.24c0,1.96-1.29,3.01-3.11,3.22
		C118.75,280.69,117.36,279.08,117.4,277.11z"/>
	<path d="M161.61,296.48c-0.06,1.81-1.15,3-3.06,2.97c-1.89-0.03-2.89-1.18-2.89-3.22c0-2,1.11-2.84,2.85-3.03
		C160.19,293.03,161.59,294.52,161.61,296.48z"/>
</g>
</svg>
